<svg xmlns="http://www.w3.org/2000/svg" width="96.553" height="31.385" viewBox="0 0 96.553 31.385">
  <g id="Group_232" data-name="Group 232" transform="translate(-2894 10.344)">
    <g id="Group_1" data-name="Group 1" transform="translate(2927.633 -10.344)">
      <path id="Path_1" data-name="Path 1" d="M158.826,10.552a5.08,5.08,0,0,0,3.028-4.777c0-3.559-1.738-5.775-5.143-5.775H148.63V17.175h2.032V2.034h5.892c.4,0,3.15.029,3.15,3.74,0,1.76-1.03,3.05-3.2,3.763V11.57s5.462,1.145,5.462,6.467c0,7.461-6.709,7.6-9.644,6-.05-.029-.26-.145-.253-.14a.22.22,0,0,1-.025-.011c-.023-.009-.038,0,0,.029s.147.122.2.17c2.392,2.014,11.839,2.546,11.839-5.947a8.051,8.051,0,0,0-5.257-7.585" transform="translate(-148.63 0)" fill="#fff"/>
    </g>
    <g id="Group_2" data-name="Group 2" transform="translate(2966.834 -10.344)">
      <path id="Path_2" data-name="Path 2" d="M329.292,0h-2.034L321.87,26.38H323.9l1.688-8.257h7.232c2.776,6.4,6.607,12.237,11.509,13.1.412.07,1.258.24,1.258.111,0-.1-.625-.165-.928-.283C335.176,27.342,329.292,0,329.292,0m-3.315,16.227,2.36-11.55a96.209,96.209,0,0,0,3.7,11.55Z" transform="translate(-321.87)" fill="#fff"/>
    </g>
    <g id="Group_3" data-name="Group 3" transform="translate(2951.614 -10.344)">
      <path id="Path_3" data-name="Path 3" d="M271.154,2.034V0H254.61V2.034h7.252V26.38H263.9V2.034Z" transform="translate(-254.61)" fill="#fff"/>
    </g>
    <g id="Group_4" data-name="Group 4" transform="translate(2946.423 -10.344)">
      <rect id="Rectangle_1" data-name="Rectangle 1" width="2.032" height="26.38" fill="#fff"/>
    </g>
    <g id="Group_5" data-name="Group 5" transform="translate(2894 -10.344)">
      <path id="Path_4" data-name="Path 4" d="M10.194,10.552a5.08,5.08,0,0,0,3.028-4.777C13.224,2.215,11.486,0,8.081,0H0V17.175H2.032V2.034H7.927c.4,0,3.15.029,3.15,3.74,0,1.76-1.03,3.05-3.2,3.763V11.57s5.462,1.145,5.462,6.467c0,7.461-6.707,7.6-9.644,6-.05-.029-.26-.145-.253-.14a.22.22,0,0,1-.025-.011c-.023-.009-.038,0,0,.029s.145.122.2.17c2.392,2.014,11.839,2.546,11.839-5.947a8.058,8.058,0,0,0-5.261-7.585" transform="translate(0 0)" fill="#fff"/>
    </g>
    <g id="Group_6" data-name="Group 6" transform="translate(2910.82 -10.344)">
      <path id="Path_5" data-name="Path 5" d="M81.75,0H79.716L74.33,26.38h2.032l1.686-8.257H85.28c2.781,6.4,6.612,12.237,11.511,13.1.412.07,1.26.24,1.26.111,0-.1-.625-.165-.928-.283C87.631,27.342,81.75,0,81.75,0M78.437,16.227l2.358-11.55a96.561,96.561,0,0,0,3.7,11.55Z" transform="translate(-74.33)" fill="#fff"/>
    </g>
  </g>
</svg>
