<svg xmlns="http://www.w3.org/2000/svg" width="107.381" height="34.056" viewBox="0 0 107.381 34.056">
  <g id="Logo" transform="translate(0 0)">
    <g id="Group_1" data-name="Group 1" transform="translate(37.404)">
      <path id="Path_1" data-name="Path 1" d="M159.97,11.735a5.649,5.649,0,0,0,3.367-5.313c0-3.959-1.933-6.422-5.72-6.422H148.63V19.1h2.26V2.262h6.553c.443,0,3.5.033,3.5,4.16,0,1.958-1.145,3.392-3.556,4.185v2.26s6.075,1.273,6.075,7.192c0,8.3-7.462,8.448-10.726,6.672-.055-.033-.289-.161-.282-.156a.243.243,0,0,1-.028-.013c-.025-.01-.043,0,0,.033s.164.136.221.189c2.66,2.24,13.167,2.831,13.167-6.614a8.953,8.953,0,0,0-5.846-8.436" transform="translate(-148.63 0)"/>
    </g>
    <g id="Group_2" data-name="Group 2" transform="translate(81.002)">
      <path id="Path_2" data-name="Path 2" d="M330.125,0h-2.262L321.87,28.625h2.26l1.877-8.96h8.043c3.088,6.941,7.348,13.279,12.8,14.219.458.076,1.4.26,1.4.12,0-.106-.695-.179-1.032-.307C336.668,29.669,330.125,0,330.125,0m-3.687,17.608,2.625-12.532a102.553,102.553,0,0,0,4.112,12.532Z" transform="translate(-321.87)"/>
    </g>
    <g id="Group_3" data-name="Group 3" transform="translate(64.075)">
      <path id="Path_3" data-name="Path 3" d="M273.009,2.262V0h-18.4V2.262h8.066V29.339h2.262V2.262Z" transform="translate(-254.61)"/>
    </g>
    <g id="Group_4" data-name="Group 4" transform="translate(58.302)">
      <rect id="Rectangle_1" data-name="Rectangle 1" width="2.26" height="29.339"/>
    </g>
    <g id="Group_5" data-name="Group 5">
      <path id="Path_4" data-name="Path 4" d="M11.337,11.735A5.649,5.649,0,0,0,14.7,6.422C14.707,2.464,12.774,0,8.987,0H0V19.1H2.26V2.262H8.816c.443,0,3.5.033,3.5,4.16,0,1.958-1.145,3.392-3.556,4.185v2.26s6.075,1.273,6.075,7.192c0,8.3-7.459,8.448-10.726,6.672-.055-.033-.289-.161-.282-.156a.245.245,0,0,1-.028-.013c-.025-.01-.043,0,0,.033s.161.136.221.189c2.66,2.24,13.167,2.831,13.167-6.614a8.961,8.961,0,0,0-5.851-8.436" transform="translate(0 0)"/>
    </g>
    <g id="Group_6" data-name="Group 6" transform="translate(18.706)">
      <path id="Path_5" data-name="Path 5" d="M82.582,0H80.32L74.33,28.625h2.26l1.875-8.96h8.043c3.093,6.941,7.354,13.279,12.8,14.219.458.076,1.4.26,1.4.12,0-.106-.695-.179-1.032-.307C89.123,29.669,82.582,0,82.582,0M78.9,17.608,81.52,5.075a102.953,102.953,0,0,0,4.11,12.532Z" transform="translate(-74.33)"/>
    </g>
  </g>
</svg>
